<svg width="80" height="80" viewBox="0 0 80 80" fill="none" xmlns="http://www.w3.org/2000/svg">
<g id="1">
<g id="Subtract">
<path fill-rule="evenodd" clip-rule="evenodd" d="M-3.49691e-06 0L-3.40419e-06 2.12122L23.419 25.5402C20.8333 28.5028 19.0287 32.1646 18.3261 36.2047L-2.71541e-06 17.8786L-2.52996e-06 22.1212L18.0003 40.1215C18.0655 52.1754 27.8246 61.9345 39.8785 61.9997L57.8788 80L62.1214 80L43.7953 61.6738C47.8354 60.9713 51.4972 59.1667 54.4598 56.581L77.8788 80L80 80L80 77.8786L56.5811 54.4597C59.1667 51.4971 60.9714 47.8352 61.6739 43.7951L80 62.1212L80 57.8786L61.9997 39.8782C61.9343 27.8246 52.1754 18.0656 40.1218 18.0003L22.1214 -9.66958e-07L17.8788 -7.81506e-07L36.2049 18.3261C32.1648 19.0286 28.5029 20.8333 25.5403 23.4189L2.12142 -9.27303e-08L-3.49691e-06 0ZM22.0004 39.879L40.121 57.9996C44.5044 57.9707 48.5159 56.3751 51.6233 53.7445L26.2555 28.3767C23.6249 31.4841 22.0293 35.4956 22.0004 39.879ZM44.7566 22.6352C50.8744 24.3071 55.6929 29.1256 57.3648 35.2434L44.7566 22.6352ZM39.8792 22.0004L57.9996 40.1208C57.9708 44.5043 56.3751 48.5157 53.7446 51.6232L28.3768 26.2554C31.4843 23.6249 35.4957 22.0292 39.8792 22.0004ZM35.2437 57.3649L22.6351 44.7563C24.307 50.8743 29.1257 55.693 35.2437 57.3649Z" fill="#ff9b9b"/>
<path d="M37.8788 -1.65573e-06L80 42.1212L80 37.8786L42.1214 -1.84119e-06L37.8788 -1.65573e-06Z" fill="#ff9b9b"/>
<path d="M57.8788 -2.52996e-06L80 22.1212L80 17.8786L62.1214 -2.71541e-06L57.8788 -2.52996e-06Z" fill="#ff9b9b"/>
<path d="M42.1214 80L-1.84119e-06 37.8786L-1.65573e-06 42.1212L37.8788 80L42.1214 80Z" fill="#ff9b9b"/>
<path d="M22.1214 80L-9.66958e-07 57.8786L-7.81506e-07 62.1212L17.8788 80L22.1214 80Z" fill="#ff9b9b"/>
</g>
</g>
</svg>
