<svg width="80" height="80" viewBox="0 0 80 80" fill="none" xmlns="http://www.w3.org/2000/svg">
<g id="10">
<path id="Union" fill-rule="evenodd" clip-rule="evenodd" d="M0.121209 58L3.70904e-07 57.8788L0 62.1214L17.8786 80H22.1212L4.12121 62H19.8786L37.8786 80H42.1212L24.1212 62H39.8786L57.8786 80H62.1212L44.1212 62H59.8786L77.8786 80H80V77.8788L64.1212 62H79.8786L80 62.1214V57.8788L64.1212 42L79.8786 42L80 42.1214V37.8788L64.1212 22L79.8786 22L80 22.1214V17.8788L62.1212 5.43081e-06L57.8786 5.0599e-06L75.8786 18H60.1212L42.1212 3.68235e-06L37.8786 3.31145e-06L55.8786 18L40.1212 18L22.1212 1.9339e-06L17.8786 1.56299e-06L35.8786 18L20.1212 18L2.12122 1.85443e-07L1.30602e-05 0L1.28748e-05 2.12144L15.8786 18L0.12122 18L1.14972e-05 17.8788L1.11263e-05 22.1214L15.8786 38H0.121218L9.74875e-06 37.8788L1.74846e-06 42.1214L15.8786 58H0.121209ZM20.1212 58H35.8786L19.8786 42H4.12122L20.1212 58ZM24.1212 42L40.1212 58H55.8786L39.8786 42H24.1212ZM44.1212 42L60.1212 58H75.8786L59.8786 42H44.1212ZM55.8786 38H40.1212L24.1212 22L39.8786 22L55.8786 38ZM60.1212 38L75.8786 38L59.8786 22L44.1212 22L60.1212 38ZM19.8786 22L35.8786 38L20.1212 38L4.12122 22L19.8786 22Z" fill="#ff9b9b"/>
</g>
</svg>
