<svg width="80" height="80" viewBox="0 0 80 80" fill="none" xmlns="http://www.w3.org/2000/svg">
<g id="11">
<g id="Subtract">
<path d="M26.7101 18C26.8987 18.6337 27 19.305 27 20C27 20.695 26.8987 21.3663 26.7101 22H33.2899C33.1013 21.3663 33 20.695 33 20C33 19.305 33.1013 18.6337 33.2899 18H26.7101Z" fill="#ff9b9b"/>
<path d="M40 33C39.305 33 38.6337 33.1013 38 33.2899V26.7101C38.6337 26.8987 39.305 27 40 27C40.695 27 41.3663 26.8987 42 26.7101V33.2899C41.3663 33.1013 40.695 33 40 33Z" fill="#ff9b9b"/>
<path d="M47 40C47 39.305 46.8987 38.6337 46.7101 38H53.2899C53.1013 38.6337 53 39.305 53 40C53 40.695 53.1013 41.3663 53.2899 42H46.7101C46.8987 41.3663 47 40.695 47 40Z" fill="#ff9b9b"/>
<path d="M42 53.2899V46.7101C41.3663 46.8987 40.695 47 40 47C39.305 47 38.6337 46.8987 38 46.7101V53.2899C38.6337 53.1013 39.305 53 40 53C40.695 53 41.3663 53.1013 42 53.2899Z" fill="#ff9b9b"/>
<path d="M46.7101 58C46.8987 58.6337 47 59.305 47 60C47 60.695 46.8987 61.3663 46.7101 62H53.2899C53.1013 61.3663 53 60.695 53 60C53 59.305 53.1013 58.6337 53.2899 58H46.7101Z" fill="#ff9b9b"/>
<path d="M42 66.7101C41.3663 66.8987 40.695 67 40 67C39.305 67 38.6337 66.8987 38 66.7101V80H42V66.7101Z" fill="#ff9b9b"/>
<path d="M22 66.7101C21.3663 66.8987 20.695 67 20 67C19.305 67 18.6337 66.8987 18 66.7101V80H22V66.7101Z" fill="#ff9b9b"/>
<path d="M13.2899 62H0V58H13.2899C13.1013 58.6337 13 59.305 13 60C13 60.695 13.1013 61.3663 13.2899 62Z" fill="#ff9b9b"/>
<path d="M18 53.2899V46.7101C18.6337 46.8987 19.305 47 20 47C20.695 47 21.3663 46.8987 22 46.7101V53.2899C21.3663 53.1013 20.695 53 20 53C19.305 53 18.6337 53.1013 18 53.2899Z" fill="#ff9b9b"/>
<path d="M33.2899 62H26.7101C26.8987 61.3663 27 60.695 27 60C27 59.305 26.8987 58.6337 26.7101 58H33.2899C33.1013 58.6337 33 59.305 33 60C33 60.695 33.1013 61.3663 33.2899 62Z" fill="#ff9b9b"/>
<path d="M0 42H13.2899C13.1013 41.3663 13 40.695 13 40C13 39.305 13.1013 38.6337 13.2899 38H0V42Z" fill="#ff9b9b"/>
<path d="M20 33C19.305 33 18.6337 33.1013 18 33.2899V26.7101C18.6337 26.8987 19.305 27 20 27C20.695 27 21.3663 26.8987 22 26.7101V33.2899C21.3663 33.1013 20.695 33 20 33Z" fill="#ff9b9b"/>
<path d="M33.2899 38H26.7101C26.8987 38.6337 27 39.305 27 40C27 40.695 26.8987 41.3663 26.7101 42H33.2899C33.1013 41.3663 33 40.695 33 40C33 39.305 33.1013 38.6337 33.2899 38Z" fill="#ff9b9b"/>
<path d="M58 66.7101V80H62V66.7101C61.3663 66.8987 60.695 67 60 67C59.305 67 58.6337 66.8987 58 66.7101Z" fill="#ff9b9b"/>
<path d="M66.7101 62H80V58H66.7101C66.8987 58.6337 67 59.305 67 60C67 60.695 66.8987 61.3663 66.7101 62Z" fill="#ff9b9b"/>
<path d="M62 53.2899V46.7101C61.3663 46.8987 60.695 47 60 47C59.305 47 58.6337 46.8987 58 46.7101V53.2899C58.6337 53.1013 59.305 53 60 53C60.695 53 61.3663 53.1013 62 53.2899Z" fill="#ff9b9b"/>
<path d="M60 33C59.305 33 58.6337 33.1013 58 33.2899V26.7101C58.6337 26.8987 59.305 27 60 27C60.695 27 61.3663 26.8987 62 26.7101V33.2899C61.3663 33.1013 60.695 33 60 33Z" fill="#ff9b9b"/>
<path d="M67 40C67 39.305 66.8987 38.6337 66.7101 38H80V42H66.7101C66.8987 41.3663 67 40.695 67 40Z" fill="#ff9b9b"/>
<path d="M66.7101 22H80V18H66.7101C66.8987 18.6337 67 19.305 67 20C67 20.695 66.8987 21.3663 66.7101 22Z" fill="#ff9b9b"/>
<path d="M62 13.2899V0H58V13.2899C58.6337 13.1013 59.305 13 60 13C60.695 13 61.3663 13.1013 62 13.2899Z" fill="#ff9b9b"/>
<path d="M53.2899 18H46.7101C46.8987 18.6337 47 19.305 47 20C47 20.695 46.8987 21.3663 46.7101 22H53.2899C53.1013 21.3663 53 20.695 53 20C53 19.305 53.1013 18.6337 53.2899 18Z" fill="#ff9b9b"/>
<path d="M42 0V13.2899C41.3663 13.1013 40.695 13 40 13C39.305 13 38.6337 13.1013 38 13.2899V0H42Z" fill="#ff9b9b"/>
<path d="M13.2899 22C13.1013 21.3663 13 20.695 13 20C13 19.305 13.1013 18.6337 13.2899 18H0V22H13.2899Z" fill="#ff9b9b"/>
<path d="M22 0V13.2899C21.3663 13.1013 20.695 13 20 13C19.305 13 18.6337 13.1013 18 13.2899V0H22Z" fill="#ff9b9b"/>
</g>
</g>
</svg>
