<svg width="80" height="80" viewBox="0 0 80 80" fill="none" xmlns="http://www.w3.org/2000/svg">
<g id="12">
<path id="Subtract" fill-rule="evenodd" clip-rule="evenodd" d="M18 1.17619e-05V4.12149L12.1214 10.0001L18 15.8787V18.0001H15.8787L10 12.1214L4.12141 18.0001L3.49691e-07 18.0001L0 22.0001L4.12133 22.0001L10 27.8788L15.8788 22.0001H18L18 24.1215L12.1214 30.0001L18 35.8788V38.0001H15.8787L10 32.1214L4.12141 38.0001H6.23063e-06L5.88094e-06 42.0001H4.12133L10 47.8788L15.8788 42.0001H18L18 44.1215L12.1214 50.0001L18 55.8788L18 58.0001H15.8787L10 52.1215L4.1214 58.0001H4.48217e-06L4.13248e-06 62.0001H4.12131L10 67.8788L15.8787 62.0001H18V64.1215L12.1214 70.0001L18 75.8788L18 80H22L22 75.8788L27.8787 70.0001L22 64.1214V62.0001H24.1213L30 67.8788L35.8788 62.0001L38 62.0001V64.1215L32.1214 70.0001L38 75.8788V80H42V75.8788L47.8787 70.0001L42 64.1214V62.0001H44.1213L50 67.8788L55.8788 62.0001L58 62.0001V64.1215L52.1214 70.0001L58 75.8788L58 80H62L62 75.8788L67.8787 70.0001L62 64.1214V62.0001H64.1213L70 67.8788L75.8788 62.0001H80V58.0001H75.8787L70 52.1215L64.1214 58.0001H62V55.8789L67.8787 50.0001L62 44.1214L62 42.0001H64.1213L70 47.8788L75.8788 42.0001L80 42.0001V38.0001L75.8787 38.0001L70 32.1214L64.1214 38.0001H62V35.8788L67.8787 30.0001L62 24.1214L62 22.0001H64.1213L70 27.8788L75.8788 22.0001L80 22.0001V18.0001L75.8787 18.0001L70 12.1214L64.1214 18.0001H62V15.8788L67.8787 10.0001L62 4.12141L62 3.49692e-07L58 0L58 4.1215L52.1214 10.0001L58 15.8788V18.0001H55.8787L50 12.1215L44.1214 18.0001H42V15.8789L47.8787 10.0001L42 4.1214L42 6.23063e-06L38 5.88094e-06L38 4.1215L32.1214 10.0001L38 15.8788V18.0001H35.8787L30 12.1214L24.1214 18.0001H22V15.8788L27.8787 10.0001L22 4.1214V1.21116e-05L18 1.17619e-05ZM22 24.1214L22 22.0001H24.1213L30 27.8788L35.8788 22.0001H38L38 24.1215L32.1214 30.0001L38 35.8788V38.0001L35.8787 38.0001L30 32.1214L24.1214 38.0001H22V35.8788L27.8787 30.0001L22 24.1214ZM42 24.1214L42 22.0001H44.1213L50 27.8788L55.8788 22.0001H58L58 24.1215L52.1214 30.0001L58 35.8788V38.0001H55.8787L50 32.1214L44.1214 38.0001H42V35.8788L47.8787 30.0001L42 24.1214ZM55.8788 42.0001H58L58 44.1215L52.1214 50.0001L58 55.8788V58.0001L55.8787 58.0001L50 52.1215L44.1214 58.0001H42L42 55.8788L47.8787 50.0001L42 44.1214L42 42.0001H44.1213L50 47.8788L55.8788 42.0001ZM38 55.8788L38 58.0001L35.8787 58.0001L30 52.1215L24.1214 58.0001H22L22 55.8788L27.8787 50.0001L22 44.1214L22 42.0001H24.1213L30 47.8788L35.8788 42.0001L38 42.0001L38 44.1215L32.1214 50.0001L38 55.8788ZM40 73L43 70L40 67L37 70L40 73ZM53 60L50 63L47 60L50 57L53 60ZM53 40L50 43L47 40L50 37L53 40ZM50 23L53 20L50 17L47 20L50 23ZM43 50L40 53L37 50L40 47L43 50ZM40 33L43 30L40 27L37 30L40 33ZM43 9.99999L40 13L37 9.99999L40 6.99999L43 9.99999ZM73 40L70 43L67 40L70 37L73 40ZM70 63L73 60L70 57L67 60L70 63ZM73 20L70 23L67 20L70 17L73 20ZM60 53L63 50L60 47L57 50L60 53ZM63 30L60 33L57 30L60 27L63 30ZM60 13L63 9.99999L60 6.99999L57 9.99999L60 13ZM63 70L60 73L57 70L60 67L63 70ZM30 43L33 40L30 37L27 40L30 43ZM33 60L30 63L27 60L30 57L33 60ZM30 23L33 20L30 17L27 20L30 23ZM23 50L20 53L17 50L20 47L23 50ZM20 33L23 30L20 27L17 30L20 33ZM23 10L20 13L17 10L20 7L23 10ZM20 73L23 70L20 67L17 70L20 73ZM13 40L9.99999 43L6.99999 40L9.99999 37L13 40ZM9.99999 63L13 60L9.99999 57L6.99999 60L9.99999 63ZM13 20L9.99998 23L6.99998 20L9.99998 17L13 20Z" fill="#182B70"/>
</g>
</svg>
