<svg width="80" height="80" viewBox="0 0 80 80" fill="none" xmlns="http://www.w3.org/2000/svg">
<g id="3">
<path id="Union" fill-rule="evenodd" clip-rule="evenodd" d="M62 0V13.2899C64.2578 13.9618 66.0382 15.7422 66.7101 18H80V22H66.7101C66.0382 24.2578 64.2578 26.0382 62 26.7101V33.2899C64.2578 33.9618 66.0382 35.7422 66.7101 38H80V42H66.7101C66.0382 44.2578 64.2578 46.0382 62 46.7101V53.2899C64.2578 53.9618 66.0382 55.7422 66.7101 58H80V62H66.7101C66.0382 64.2578 64.2578 66.0382 62 66.7101V80H58V66.7101C55.7422 66.0382 53.9618 64.2578 53.2899 62H46.7101C46.0382 64.2578 44.2578 66.0382 42 66.7101V80H38V66.7101C35.7422 66.0382 33.9618 64.2578 33.2899 62H26.7101C26.0382 64.2578 24.2578 66.0382 22 66.7101V80H18V66.7101C15.7422 66.0382 13.9618 64.2578 13.2899 62H0V58H13.2899C13.9618 55.7422 15.7422 53.9618 18 53.2899V46.7101C15.7422 46.0382 13.9618 44.2578 13.2899 42H0V38H13.2899C13.9618 35.7422 15.7422 33.9618 18 33.2899V26.7101C15.7422 26.0382 13.9618 24.2578 13.2899 22H0V18H13.2899C13.9618 15.7422 15.7422 13.9618 18 13.2899V0H22V13.2899C24.2578 13.9618 26.0382 15.7422 26.7101 18H33.2899C33.9618 15.7422 35.7422 13.9618 38 13.2899V0H42V13.2899C44.2578 13.9618 46.0382 15.7422 46.7101 18H53.2899C53.9618 15.7422 55.7422 13.9618 58 13.2899V0H62ZM26.7101 22H33.2899C33.9618 24.2578 35.7422 26.0382 38 26.7101V33.2899C35.7422 33.9618 33.9618 35.7422 33.2899 38H26.7101C26.0382 35.7422 24.2578 33.9618 22 33.2899V26.7101C24.2578 26.0382 26.0382 24.2578 26.7101 22ZM33.2899 42H26.7101C26.0382 44.2578 24.2578 46.0382 22 46.7101V53.2899C24.2578 53.9618 26.0382 55.7422 26.7101 58H33.2899C33.9618 55.7422 35.7422 53.9618 38 53.2899V46.7101C35.7422 46.0382 33.9618 44.2578 33.2899 42ZM42 46.7101V53.2899C44.2578 53.9618 46.0382 55.7422 46.7101 58H53.2899C53.9618 55.7422 55.7422 53.9618 58 53.2899V46.7101C55.7422 46.0382 53.9618 44.2578 53.2899 42H46.7101C46.0382 44.2578 44.2578 46.0382 42 46.7101ZM46.7101 38H53.2899C53.9618 35.7422 55.7422 33.9618 58 33.2899V26.7101C55.7422 26.0382 53.9618 24.2578 53.2899 22H46.7101C46.0382 24.2578 44.2578 26.0382 42 26.7101V33.2899C44.2578 33.9618 46.0382 35.7422 46.7101 38ZM17 20C17 18.3431 18.3431 17 20 17C21.6569 17 23 18.3431 23 20C23 21.6569 21.6569 23 20 23C18.3431 23 17 21.6569 17 20ZM20 37C18.3431 37 17 38.3431 17 40C17 41.6569 18.3431 43 20 43C21.6569 43 23 41.6569 23 40C23 38.3431 21.6569 37 20 37ZM17 60C17 58.3431 18.3431 57 20 57C21.6569 57 23 58.3431 23 60C23 61.6569 21.6569 63 20 63C18.3431 63 17 61.6569 17 60ZM40 57C38.3431 57 37 58.3431 37 60C37 61.6569 38.3431 63 40 63C41.6569 63 43 61.6569 43 60C43 58.3431 41.6569 57 40 57ZM57 60C57 58.3431 58.3431 57 60 57C61.6569 57 63 58.3431 63 60C63 61.6569 61.6569 63 60 63C58.3431 63 57 61.6569 57 60ZM60 37C58.3431 37 57 38.3431 57 40C57 41.6569 58.3431 43 60 43C61.6569 43 63 41.6569 63 40C63 38.3431 61.6569 37 60 37ZM57 20C57 18.3431 58.3431 17 60 17C61.6569 17 63 18.3431 63 20C63 21.6569 61.6569 23 60 23C58.3431 23 57 21.6569 57 20ZM40 17C38.3431 17 37 18.3431 37 20C37 21.6569 38.3431 23 40 23C41.6569 23 43 21.6569 43 20C43 18.3431 41.6569 17 40 17ZM37 40C37 38.3431 38.3431 37 40 37C41.6569 37 43 38.3431 43 40C43 41.6569 41.6569 43 40 43C38.3431 43 37 41.6569 37 40Z" fill="#ff9b9b"/>
</g>
</svg>
