<svg width="80" height="80" viewBox="0 0 80 80" fill="none" xmlns="http://www.w3.org/2000/svg">
<g id="4">
<g id="Union">
<path d="M80 62.1214L62 44.1214L62 59.8788L80 77.8788L80 80L77.8786 80L62 64.1214L62 79.8788L62.1212 80L58 80L58 22L-9.61651e-07 22L6.84789e-06 17.8788L0.121215 18L15.8786 18L7.53666e-06 2.12143L7.62939e-06 -3.49691e-06L2.12122 -3.40419e-06L20.1212 18L35.8786 18L17.8786 -2.71541e-06L22.1212 -2.52996e-06L40.1212 18L55.8786 18L37.8786 -1.84119e-06L42.1212 -1.65573e-06L60.1212 18L62 18L62 19.8788L80 37.8788L80 42.1214L62 24.1214L62 39.8788L80 57.8788L80 62.1214Z" fill="#ff9b9b"/>
<path d="M80 22.1214L57.8786 -9.66958e-07L62.1212 -7.81507e-07L80 17.8788L80 22.1214Z" fill="#ff9b9b"/>
<path d="M42 38L42 80L38 80L38 42L-1.83588e-06 42L-1.66103e-06 38L42 38Z" fill="#ff9b9b"/>
<path d="M22 80L22 58L-2.53526e-06 58L-2.71011e-06 62L18 62L18 80L22 80Z" fill="#ff9b9b"/>
</g>
</g>
</svg>
