<svg width="80" height="80" viewBox="0 0 80 80" fill="none" xmlns="http://www.w3.org/2000/svg">
<g id="6">
<path id="Subtract" fill-rule="evenodd" clip-rule="evenodd" d="M80 42.1214L72.1213 50.0001L80 57.8788V62.1214L72.1213 70.0001L80 77.8788V80H77.8786L70 72.1214L62.1214 80H57.8786L50 72.1214L42.1212 80H37.8786L30 72.1214L22.1212 80H17.8786L10 72.1214L2.12143 80H-3.31145e-06L-3.12601e-06 77.8788L7.87867 70.0001L-1.74846e-06 62.1214L-1.37755e-06 57.8788L7.87868 50.0001L-7.62939e-06 42.1214L-7.25849e-06 37.8788L7.87868 30.0001L-5.88094e-06 22.1214L-5.51004e-06 17.8788L7.87868 10.0001L3.49691e-06 2.12144L3.68237e-06 0L2.12121 1.85443e-07L10 7.87879L17.8788 9.19241e-06L22.1213 0.000116375L30 7.87879L37.8788 1.09409e-05L42.1213 0.000118123L50 7.87879L57.8788 5.05992e-06L62.1213 0.000119872L70 7.87879L77.8788 6.80838e-06L80 6.99382e-06V2.12144L72.1213 10.0001L80 17.8788V22.1214L72.1213 30.0001L80 37.8788V42.1214ZM77.8787 40.0001L70 47.8788L62.1213 40.0001L70 32.1214L77.8787 40.0001ZM60 42.1214L67.8787 50.0001L60 57.8788L52.1213 50.0001L60 42.1214ZM70 52.1214L62.1213 60.0001L70 67.8788L77.8787 60.0001L70 52.1214ZM50 52.1214L57.8787 60.0001L50 67.8788L42.1213 60.0001L50 52.1214ZM60 62.1214L52.1213 70.0001L60 77.8788L67.8787 70.0001L60 62.1214ZM40 62.1214L47.8787 70.0001L40 77.8788L32.1213 70.0001L40 62.1214ZM37.8787 60.0001L30 67.8788L22.1213 60.0001L30 52.1214L37.8787 60.0001ZM27.8787 50.0001L20 57.8788L12.1213 50.0001L20 42.1214L27.8787 50.0001ZM17.8787 60.0001L10 52.1214L2.12131 60.0001L10 67.8788L17.8787 60.0001ZM20 62.1214L12.1213 70.0001L20 77.8788L27.8787 70.0001L20 62.1214ZM17.8787 40.0001L10 47.8788L2.12132 40.0001L10 32.1214L17.8787 40.0001ZM20 37.8788L12.1213 30.0001L20 22.1214L27.8787 30.0001L20 37.8788ZM30 27.8788L22.1213 20.0001L30 12.1214L37.8787 20.0001L30 27.8788ZM20 17.8788L27.8787 10.0001L20 2.12143L12.1213 10.0001L20 17.8788ZM17.8787 20.0001L10 12.1214L2.12132 20.0001L10 27.8788L17.8787 20.0001ZM40 17.8788L32.1213 10.0001L40 2.12143L47.8787 10.0001L40 17.8788ZM42.1213 20.0001L50 12.1214L57.8787 20.0001L50 27.8788L42.1213 20.0001ZM52.1213 30.0001L60 22.1214L67.8787 30.0001L60 37.8788L52.1213 30.0001ZM62.1213 20.0001L70 27.8788L77.8787 20.0001L70 12.1214L62.1213 20.0001ZM60 17.8788L67.8787 10.0001L60 2.12144L52.1213 10.0001L60 17.8788ZM22 40L40 22L58 40L40 58L22 40Z" fill="#ff9b9b"/>
</g>
</svg>
