<svg width="80" height="80" viewBox="0 0 80 80" fill="none" xmlns="http://www.w3.org/2000/svg">
<g id="8">
<g id="Subtract">
<path d="M80 2.7154e-06L77.8788 2.62268e-06L0 77.8788V80H2.12143L80 2.12143V2.7154e-06Z" fill="#ff9b9b"/>
<path d="M80 17.8788L17.8788 80H22.1214L80 22.1214V17.8788Z" fill="#ff9b9b"/>
<path d="M80 37.8788L37.8788 80L42.1214 80L80 42.1214V37.8788Z" fill="#ff9b9b"/>
<path d="M80 57.8788L57.8788 80H62.1214L80 62.1214V57.8788Z" fill="#ff9b9b"/>
<path d="M62.1214 1.93391e-06L0 62.1214V57.8788L57.8788 0L62.1214 1.93391e-06Z" fill="#ff9b9b"/>
<path d="M42.1214 0L0 42.1214V37.8788L37.8788 0H42.1214Z" fill="#ff9b9b"/>
<path d="M22.1214 0L0 22.1214V17.8788L17.8788 0H22.1214Z" fill="#ff9b9b"/>
</g>
</g>
</svg>
