<svg width="80" height="80" viewBox="0 0 80 80" fill="none" xmlns="http://www.w3.org/2000/svg">
<g id="9">
<g id="Union">
<path fill-rule="evenodd" clip-rule="evenodd" d="M17.8786 80L36.3672 61.5113C32.4193 60.6652 28.8643 58.7597 26.0143 56.1069L2.12122 80L0 80L1.85461e-07 77.8786L23.961 53.9176C21.4432 50.8388 19.7433 47.0651 19.1932 42.9281L1.56301e-06 62.1212L1.93392e-06 57.8786L19.0296 38.849C19.6086 27.6149 28.6149 18.6086 39.849 18.0296L57.8786 5.69548e-06L62.1212 6.06638e-06L43.9281 18.1931C48.0651 18.7433 51.8388 20.4432 54.9176 22.9609L77.8786 7.44393e-06L80 7.62939e-06L80 2.12122L57.1069 25.0143C59.7597 27.8643 61.6652 31.4193 62.5114 35.3672L80 17.8786L80 22.1212L62.9834 39.1378C62.9944 39.4238 63 39.7113 63 40C63 52.1503 53.1503 62 41 62C40.7113 62 40.4238 61.9944 40.1378 61.9834L22.1212 80L17.8786 80ZM23 40C23 30.0589 31.0589 22 41 22C50.9411 22 59 30.0589 59 40C59 49.9411 50.9411 58 41 58C31.0589 58 23 49.9411 23 40Z" fill="#182B70"/>
<path d="M42.1212 4.31793e-06L3.31147e-06 42.1212L3.68237e-06 37.8786L37.8786 -3.68237e-06L42.1212 4.31793e-06Z" fill="#182B70"/>
<path d="M22.1212 -5.05992e-06L5.05992e-06 22.1212L5.43083e-06 17.8786L17.8786 -5.43083e-06L22.1212 -5.05992e-06Z" fill="#182B70"/>
<path d="M37.8786 80L80 37.8786L80 42.1212L42.1212 80L37.8786 80Z" fill="#182B70"/>
<path d="M57.8786 80L80 57.8786L80 62.1212L62.1212 80L57.8786 80Z" fill="#182B70"/>
</g>
</g>
</svg>
